<svg width="1381" height="764" viewBox="0 0 1381 764" fill="none" xmlns="http://www.w3.org/2000/svg">
<path d="M349.277 708.631C347.999 708.187 346.199 708.196 345.224 709.112C342.201 712.45 330.776 722.924 316.501 732.321C303.459 740.916 284.111 751.17 266.026 751.197H265.889C257.179 751.197 250.475 749.691 245.991 746.723C241.279 743.605 238.87 738.782 238.838 732.403C238.719 705.687 264.593 683.165 280.03 672.11C301.412 656.801 327.652 645.672 342.416 645.645H342.481C346.653 645.645 349.73 646.368 351.892 647.852C354.346 649.537 355.596 652.276 355.619 655.99C355.651 664.064 348.155 671.693 344.18 674.61C343.149 675.43 343.745 676.337 344.738 676.836C345.851 677.385 347.582 677.514 348.777 676.68L349.139 676.396C352.267 673.919 361.774 666.385 361.714 654.502C361.71 651.52 360.771 647.275 356.416 643.978C351.91 640.566 344.697 638.835 334.975 638.835H334.833C312.407 638.876 283.662 650.357 259.826 668.812C234.3 688.555 219.714 711.786 219.815 732.559C219.888 747.305 234.808 757.581 256.135 757.581H256.249C281.372 757.54 304.673 745.931 319.794 736.2C336.248 725.607 348.109 714.044 350.563 711.035C351.429 709.996 350.504 709.066 349.277 708.631Z" fill="#1C1C1C" stroke="#1C1C1C" stroke-width="0.641333" stroke-miterlimit="10"/>
<path d="M460.126 709.011C459.751 708.319 458.697 707.752 457.484 707.6C456.293 707.454 455.148 707.715 454.269 708.333C441.382 717.071 408.974 733.392 392.945 733.419H392.881C388.554 733.419 387.294 732.719 387.285 730.305C387.239 720.927 407.549 706.025 408.415 705.398C411.341 703.286 411.089 700.521 407.787 698.524C406.945 698.016 405.974 697.631 404.884 697.37C403.799 697.109 402.604 696.971 401.34 696.971C398.024 696.976 395.093 697.947 391.205 700.324C390.211 700.933 389.172 701.711 388.128 702.618C383.612 700.017 378.461 698.638 373.226 698.638H373.176C355.426 698.67 328.288 714.172 328.343 727.535C328.361 730.667 329.735 733.529 332.212 735.599C334.974 737.898 338.94 739.116 343.684 739.116H343.735C355.783 739.098 363.806 732.87 370.254 727.869C371.93 726.564 373.533 725.323 375.104 724.26C375.095 724.471 375.086 724.686 375.086 724.888C375.104 728.762 376.207 731.862 378.374 734.097C380.975 736.781 385.046 738.141 390.477 738.141H390.532C414.139 738.104 446.621 718.935 459.499 710.692C460.222 710.211 460.442 709.615 460.126 709.011ZM376.601 718.458C375.054 719.164 372.819 720.711 370.236 722.488C363.902 726.871 355.211 732.87 347.861 732.884C345.878 732.907 344.87 732.586 344.861 730.951C344.829 723.162 365.093 706.107 380.402 706.085C382.051 706.062 383.104 706.19 384.258 706.506C381.121 710.082 378.264 714.433 376.601 718.458Z" fill="#1C1C1C" stroke="#1C1C1C" stroke-width="0.641333" stroke-miterlimit="10"/>
<path d="M575.09 709.575C573.977 709.025 572.164 708.842 571.01 709.579C562.79 714.905 530.431 731.698 515.374 731.721H515.36C513.363 731.721 511.344 731.075 511.339 729.843C511.33 727.512 513.514 724.531 516.056 721.074C519.463 716.439 523.314 711.182 523.292 705.65C523.269 700.022 519.349 696.793 512.544 696.793H512.512C498.324 696.821 484.526 708.585 472.354 718.967C467.042 723.501 462.005 727.796 457.242 730.91C461.748 721.129 474.868 708.068 479.269 703.686C479.906 703.054 480.373 702.591 480.62 702.325C483.469 699.326 483.34 696.853 480.249 694.98C479.342 694.435 478.317 694.009 477.227 693.721C476.137 693.423 474.992 693.267 473.865 693.267C471.296 693.272 469.103 693.89 466.95 695.204C462.188 698.122 443.563 713.939 443.627 726.432C443.632 729.294 445.518 737.478 453.734 737.478H453.762C457.292 737.473 459.188 736.259 460.718 735.284C460.905 735.16 461.098 735.046 461.281 734.927C465.206 732.527 470.119 728.19 475.326 723.602C486.088 714.104 499.451 702.321 510.611 701.968C510.025 703.699 508.221 706.259 506.155 709.204C502.569 714.305 498.118 720.643 498.132 725.493C498.173 733.768 507.268 736.763 513.395 736.763H513.418C528.778 736.736 569.279 717.905 575.676 712.267C576.949 711.118 576.152 710.101 575.09 709.575Z" fill="#1C1C1C" stroke="#1C1C1C" stroke-width="0.641333" stroke-miterlimit="10"/>
<path d="M696.909 708.37C695.48 708.036 693.57 708.288 692.828 709.41C684.036 721.527 643.036 751.211 625.991 751.243C622.304 751.243 619.658 750.543 617.885 749.095C616.104 747.63 615.238 745.436 615.22 742.396C615.174 731.634 621.416 719.26 629.055 708.173C644.721 703.69 665.013 694.027 680.89 683.463C699.785 670.901 710.166 658.871 710.12 649.606C710.093 644.093 705.349 641.185 696.4 641.185H696.327C677.679 641.217 652.14 659.649 634.458 676.886C626.316 684.827 619.3 692.905 613.654 700.709C611.126 699.45 606.405 697.59 600.561 697.59H600.515C591.531 697.609 580.444 701.249 570.85 707.349C561.233 713.463 555.508 720.547 555.531 726.294C555.563 733.118 562.002 738.073 570.85 738.073H570.886C582.472 738.045 591.595 731.469 600.355 724.833C598.798 729.312 597.997 733.452 598.01 737.125C598.07 750.73 609.647 756.922 620.404 756.922H620.45C636.322 756.89 655.359 746.11 668.53 737.065C684.091 726.386 695.984 715.066 698.585 711.004C699.418 709.648 698.342 708.705 696.909 708.37ZM651.476 681.393C670.554 661.971 691.821 646.753 699.895 646.735H699.904C702.711 646.735 703.137 649.73 703.146 651.521C703.219 667.874 656.023 695.974 632.869 702.866C639.647 693.849 646.851 686.087 651.476 681.393ZM603.391 717.561C602.114 718.331 600.534 719.411 598.702 720.662C592.185 725.108 582.344 731.84 575.205 731.84H575.173C573.185 731.84 572.114 731.515 572.104 729.811C572.063 721.298 593.431 705.064 607.861 705.041L610.636 705.032C607.756 709.35 605.324 713.545 603.391 717.561Z" fill="#1C1C1C" stroke="#1C1C1C" stroke-width="0.641333" stroke-miterlimit="10"/>
<path d="M779.054 708.334C777.626 707.995 775.716 708.251 774.974 709.373C766.236 721.427 725.117 750.946 707.867 750.969H707.821C704.176 750.969 701.547 750.259 699.798 748.789C698.044 747.323 697.174 745.125 697.169 742.071C697.119 733.026 701.996 721.12 710.811 708.009C726.491 703.58 746.92 693.844 762.875 683.193C781.701 670.627 792.042 658.601 792.001 649.323C791.968 643.814 787.256 640.901 778.354 640.901H778.29C759.665 640.933 734.093 659.475 716.38 676.818C693.808 698.923 679.813 722.04 679.886 737.152C679.914 743.33 682.345 748.432 686.906 751.917C690.904 754.962 696.354 756.643 702.28 756.643H702.325C718.212 756.615 737.313 745.899 750.538 736.914C766.223 726.258 778.148 714.997 780.73 710.967C781.564 709.616 780.483 708.673 779.054 708.334ZM732.724 681.361C751.939 661.495 773.037 646.502 781.811 646.488C782.837 646.488 783.648 646.932 784.22 647.807C784.792 648.673 785.095 649.936 785.099 651.452C785.173 667.714 737.78 695.795 714.521 702.728C719.613 695.795 725.722 688.601 732.724 681.361Z" fill="#1C1C1C" stroke="#1C1C1C" stroke-width="0.641333" stroke-miterlimit="10"/>
<path d="M877.66 708.897C876.639 708.21 874.711 707.912 873.172 708.7C868.698 711.072 828.669 731.909 799.736 731.959C794.03 731.987 789.18 731.268 785.682 729.93C782.311 728.644 780.521 726.89 780.511 724.87C780.511 723.643 781.084 722.306 782.091 720.909C784.111 721.326 787.839 721.779 792.253 721.775C810.933 721.738 829.232 712.89 829.196 703.905C829.168 699.138 820.957 695.552 810.067 695.552H809.985C790.669 695.584 763.86 708.952 763.92 722.058C763.952 729.134 771.902 737.372 794.186 737.372H794.332C826.659 737.322 868.02 717.117 877.335 711.709C878.988 710.72 878.691 709.584 877.66 708.897ZM817.916 702.554H817.926C819.757 702.554 822.464 703.416 822.464 704.611C822.487 709.511 807.695 717.667 791.887 717.694C789.162 717.676 787.284 717.502 785.549 717.264C793.925 709.973 810.525 702.573 817.916 702.554Z" fill="#1C1C1C" stroke="#1C1C1C" stroke-width="0.641333" stroke-miterlimit="10"/>
<path d="M1054.34 707.77C1053.17 707.175 1051.2 707.01 1049.91 707.894C1042.97 712.702 1005.62 731.547 976.701 731.593H976.595C971.453 731.593 966.708 730.938 963.264 729.743C960.7 728.854 957.632 727.251 957.623 724.637C957.591 716.119 985.012 702.188 995.151 702.17H995.174C997.308 702.17 999.589 702.719 999.598 704.253C999.607 706.52 997.441 707.921 995.028 709.277C994.103 709.822 994.093 710.665 994.986 711.329C995.893 711.997 997.597 712.336 999.108 711.681C1001.8 710.39 1006.33 707.175 1006.31 703.324C1006.3 701.016 1004.28 698.923 1000.62 697.425C997.111 695.987 992.362 695.195 987.243 695.195H987.137C978.739 695.209 967.272 698.286 957.925 703.04C951.619 706.25 941.031 712.94 941.072 721.701C941.104 731.048 952.846 737.074 970.986 737.074H971.123C1004.22 737.024 1049.02 714.974 1054.73 710.495C1056.07 709.423 1055.51 708.361 1054.34 707.77Z" fill="#1C1C1C" stroke="#1C1C1C" stroke-width="0.641333" stroke-miterlimit="10"/>
<path d="M1158.24 709.648C1157.33 708.938 1155.62 708.549 1153.86 709.287C1147.67 711.801 1131.06 717.667 1110.39 717.704C1106.56 717.708 1102.8 717.488 1099.22 717.067C1105.05 711.123 1108.52 705.179 1108.5 700.741C1108.48 697.224 1106.58 694.014 1103.14 691.715C1099.77 689.457 1095.19 688.207 1090.28 688.225C1084.56 688.239 1078.36 689.755 1073.71 692.287C1069.16 694.765 1066.41 697.97 1065.82 701.433C1065.25 701.341 1064.47 701.272 1063.6 701.295C1060.03 701.3 1057.22 702.129 1053.91 704.153C1046.43 708.728 1037.52 716.032 1037.55 724.825C1037.59 732.486 1045.02 738.041 1055.23 738.041H1055.28C1066.38 738.023 1079.44 732.958 1091.13 724.133C1092.52 723.075 1093.87 721.99 1095.13 720.9C1100.12 721.688 1105.33 722.095 1110.55 722.095C1133.87 722.054 1154.74 713.967 1157.9 712.373C1159.38 711.567 1159.19 710.395 1158.24 709.648ZM1086.79 720.433C1077.16 727.554 1066.66 731.808 1058.7 731.827H1058.68C1057.39 731.827 1056.18 731.506 1055.27 730.929C1054.28 730.306 1053.76 729.454 1053.76 728.465C1053.73 722.659 1062.83 714.173 1069.32 710.651C1072.28 713.587 1076.62 715.721 1080.51 717.181C1082.84 718.056 1085.38 718.83 1088.06 719.485C1087.64 719.801 1087.22 720.121 1086.79 720.433ZM1092.29 715.927C1088.8 715.18 1085.59 714.214 1082.75 713.046C1075.98 710.239 1072.09 706.543 1072.07 702.894C1072.06 700.448 1074.1 697.87 1077.65 695.818C1081.19 693.785 1085.61 692.613 1089.78 692.603H1089.82C1093.42 692.603 1096.48 693.464 1098.67 695.095C1100.71 696.597 1101.83 698.653 1101.84 700.865C1101.85 704.876 1098.24 710.445 1092.29 715.927Z" fill="#1C1C1C" stroke="#1C1C1C" stroke-width="0.641333" stroke-miterlimit="10"/>
<path d="M1175.63 750.112H1175.6C1172.45 750.117 1169.56 750.863 1167.44 752.21C1165.37 753.533 1164.23 755.31 1164.24 757.22C1164.25 758.992 1165.46 760.608 1167.65 761.772C1169.75 762.894 1172.56 763.512 1175.57 763.512H1175.61C1182.6 763.498 1186.37 759.977 1186.35 756.675C1186.33 753.446 1182.32 750.112 1175.63 750.112Z" fill="#1C1C1C" stroke="#1C1C1C" stroke-width="0.641333" stroke-miterlimit="10"/>
<mask id="path-10-inside-1_402_984" fill="white">
<path d="M341.894 561.148H258.177L181.484 444.354C169.967 425.816 159.04 411.185 148.695 400.446C138.355 389.716 122.254 379.572 100.405 370.006C94.1539 367.08 89.4691 362.981 86.3505 357.71C83.2273 352.444 81.6702 347.077 81.6702 341.613C81.6702 335.367 83.7173 329.858 87.8159 325.072C91.91 320.291 98.1518 317.901 106.546 317.901C113.965 317.901 123.234 320.538 134.357 325.805C150.555 333.805 165.383 337.803 178.847 337.803C193.487 337.803 204.995 333.224 213.39 324.051C221.779 314.878 227.732 303.223 231.245 289.068C234.757 274.922 236.511 260.529 236.511 245.893C236.511 228.528 233.681 212.72 228.026 198.473C222.361 184.231 214.658 172.86 204.899 164.369C195.14 155.884 183.921 151.639 171.236 151.639H70.2537V561.148H0V140.222H191.142C213 140.222 232.806 144.957 250.566 154.423C268.32 163.888 282.42 176.569 292.862 192.474C303.298 208.383 308.523 226.091 308.523 245.6C308.523 264.916 303.252 282.534 292.72 298.438C282.178 314.343 268.027 327.028 250.273 336.489C232.513 345.959 212.808 350.685 191.142 350.685C170.068 350.685 149.474 345.712 129.379 335.756C120.014 331.273 112.499 329.024 106.844 329.024C101.957 329.024 98.399 330.297 96.1551 332.834C93.9112 335.367 92.7892 338.298 92.7892 341.613C92.7892 345.126 93.8608 348.542 96.0132 351.858C101.083 359.862 114.45 363.86 136.111 363.86H147.532C153.971 363.86 160.016 364.149 165.681 364.735C189.095 367.863 207.39 375.272 220.561 386.982C233.736 398.692 246.366 414.404 258.465 434.114"/>
</mask>
<path d="M341.894 561.148H258.177L181.484 444.354C169.967 425.816 159.04 411.185 148.695 400.446C138.355 389.716 122.254 379.572 100.405 370.006C94.1539 367.08 89.4691 362.981 86.3505 357.71C83.2273 352.444 81.6702 347.077 81.6702 341.613C81.6702 335.367 83.7173 329.858 87.8159 325.072C91.91 320.291 98.1518 317.901 106.546 317.901C113.965 317.901 123.234 320.538 134.357 325.805C150.555 333.805 165.383 337.803 178.847 337.803C193.487 337.803 204.995 333.224 213.39 324.051C221.779 314.878 227.732 303.223 231.245 289.068C234.757 274.922 236.511 260.529 236.511 245.893C236.511 228.528 233.681 212.72 228.026 198.473C222.361 184.231 214.658 172.86 204.899 164.369C195.14 155.884 183.921 151.639 171.236 151.639H70.2537V561.148H0V140.222H191.142C213 140.222 232.806 144.957 250.566 154.423C268.32 163.888 282.42 176.569 292.862 192.474C303.298 208.383 308.523 226.091 308.523 245.6C308.523 264.916 303.252 282.534 292.72 298.438C282.178 314.343 268.027 327.028 250.273 336.489C232.513 345.959 212.808 350.685 191.142 350.685C170.068 350.685 149.474 345.712 129.379 335.756C120.014 331.273 112.499 329.024 106.844 329.024C101.957 329.024 98.399 330.297 96.1551 332.834C93.9112 335.367 92.7892 338.298 92.7892 341.613C92.7892 345.126 93.8608 348.542 96.0132 351.858C101.083 359.862 114.45 363.86 136.111 363.86H147.532C153.971 363.86 160.016 364.149 165.681 364.735C189.095 367.863 207.39 375.272 220.561 386.982C233.736 398.692 246.366 414.404 258.465 434.114" fill="#1C1C1C"/>
<path d="M258.177 561.148V561.282H258.105L258.065 561.222L258.177 561.148ZM181.484 444.354L181.373 444.427L181.371 444.424L181.484 444.354ZM148.695 400.446L148.791 400.353L148.791 400.353L148.695 400.446ZM100.405 370.006L100.351 370.128L100.348 370.127L100.405 370.006ZM86.3505 357.71L86.4652 357.642L86.4652 357.642L86.3505 357.71ZM87.8159 325.072L87.9172 325.159H87.9172L87.8159 325.072ZM134.357 325.805L134.414 325.684L134.416 325.685L134.357 325.805ZM213.39 324.051L213.488 324.141L213.488 324.141L213.39 324.051ZM231.245 289.068L231.115 289.036L231.115 289.036L231.245 289.068ZM228.026 198.473L228.149 198.424L228.149 198.424L228.026 198.473ZM204.899 164.369L204.987 164.269H204.987L204.899 164.369ZM70.2537 151.639H70.1203V151.505H70.2537V151.639ZM70.2537 561.148H70.387V561.282H70.2537V561.148ZM0 561.148V561.282H-0.133333V561.148H0ZM0 140.222H-0.133333V140.089H0V140.222ZM250.566 154.423L250.628 154.305L250.628 154.305L250.566 154.423ZM292.862 192.474L292.973 192.4V192.401L292.862 192.474ZM292.72 298.438L292.831 298.512L292.831 298.512L292.72 298.438ZM250.273 336.489L250.21 336.371L250.21 336.371L250.273 336.489ZM129.379 335.756L129.437 335.636L129.438 335.637L129.379 335.756ZM96.1551 332.834L96.255 332.923L96.2549 332.923L96.1551 332.834ZM96.0132 351.858L96.125 351.785L96.1258 351.786L96.0132 351.858ZM165.681 364.735L165.694 364.602L165.698 364.603L165.681 364.735ZM220.561 386.982L220.472 387.082L220.472 387.082L220.561 386.982ZM341.894 561.148V561.282H258.177V561.148V561.015H341.894V561.148ZM258.177 561.148L258.065 561.222L181.373 444.427L181.484 444.354L181.596 444.28L258.288 561.075L258.177 561.148ZM181.484 444.354L181.371 444.424C169.857 425.891 158.936 411.268 148.599 400.538L148.695 400.446L148.791 400.353C159.145 411.101 170.077 425.741 181.598 444.283L181.484 444.354ZM148.695 400.446L148.599 400.538C138.276 389.826 122.193 379.691 100.351 370.128L100.405 370.006L100.458 369.884C122.314 379.454 138.434 389.606 148.791 400.353L148.695 400.446ZM100.405 370.006L100.348 370.127C94.0763 367.191 89.3697 363.075 86.2357 357.778L86.3505 357.71L86.4652 357.642C89.5685 362.887 94.2315 366.969 100.461 369.885L100.405 370.006ZM86.3505 357.71L86.2358 357.778C83.1019 352.493 81.5369 347.103 81.5369 341.613H81.6702H81.8036C81.8036 347.05 83.3527 352.394 86.4652 357.642L86.3505 357.71ZM81.6702 341.613H81.5369C81.5369 335.335 83.5955 329.795 87.7146 324.985L87.8159 325.072L87.9172 325.159C83.839 329.92 81.8036 335.399 81.8036 341.613H81.6702ZM87.8159 325.072L87.7146 324.985C91.8418 320.166 98.1266 317.767 106.546 317.767V317.901V318.034C98.177 318.034 91.9781 320.417 87.9172 325.159L87.8159 325.072ZM106.546 317.901V317.767C113.993 317.767 123.283 320.414 134.414 325.684L134.357 325.805L134.3 325.925C123.184 320.663 113.936 318.034 106.546 318.034V317.901ZM134.357 325.805L134.416 325.685C150.601 333.68 165.409 337.67 178.847 337.67V337.803V337.936C165.357 337.936 150.508 333.931 134.298 325.924L134.357 325.805ZM178.847 337.803V337.67C193.457 337.67 204.927 333.101 213.291 323.961L213.39 324.051L213.488 324.141C205.064 333.346 193.517 337.936 178.847 337.936V337.803ZM213.39 324.051L213.291 323.961C221.663 314.807 227.607 303.173 231.115 289.036L231.245 289.068L231.374 289.1C227.857 303.273 221.895 314.949 213.488 324.141L213.39 324.051ZM231.245 289.068L231.115 289.036C234.625 274.901 236.378 260.518 236.378 245.893H236.511H236.645C236.645 260.54 234.889 274.944 231.374 289.1L231.245 289.068ZM236.511 245.893H236.378C236.378 228.542 233.55 212.751 227.902 198.522L228.026 198.473L228.149 198.424C233.812 212.688 236.645 228.513 236.645 245.893H236.511ZM228.026 198.473L227.902 198.522C222.243 184.296 214.552 172.944 204.812 164.47L204.899 164.369L204.987 164.269C214.764 172.776 222.478 184.165 228.149 198.424L228.026 198.473ZM204.899 164.369L204.812 164.47C195.077 156.005 183.888 151.772 171.236 151.772V151.639V151.505C183.954 151.505 195.204 155.762 204.987 164.269L204.899 164.369ZM171.236 151.639V151.772H70.2537V151.639V151.505H171.236V151.639ZM70.2537 151.639H70.387V561.148H70.2537H70.1203V151.639H70.2537ZM70.2537 561.148V561.282H0V561.148V561.015H70.2537V561.148ZM0 561.148H-0.133333V140.222H0H0.133333V561.148H0ZM0 140.222V140.089H191.142V140.222V140.355H0V140.222ZM191.142 140.222V140.089C213.02 140.089 232.848 144.828 250.628 154.305L250.566 154.423L250.503 154.54C232.765 145.086 212.98 140.355 191.142 140.355V140.222ZM250.566 154.423L250.628 154.305C268.401 163.781 282.519 176.476 292.973 192.4L292.862 192.474L292.75 192.547C282.322 176.662 268.239 163.996 250.503 154.54L250.566 154.423ZM292.862 192.474L292.973 192.401C303.424 208.332 308.657 226.066 308.657 245.6H308.523H308.39C308.39 226.117 303.172 208.434 292.75 192.547L292.862 192.474ZM308.523 245.6H308.657C308.657 264.942 303.378 282.585 292.831 298.512L292.72 298.438L292.608 298.364C303.127 282.482 308.39 264.89 308.39 245.6H308.523ZM292.72 298.438L292.831 298.512C282.276 314.436 268.108 327.135 250.335 336.606L250.273 336.489L250.21 336.371C267.946 326.92 282.079 314.249 292.609 298.364L292.72 298.438ZM250.273 336.489L250.335 336.606C232.555 346.088 212.828 350.818 191.142 350.818V350.685V350.552C212.788 350.552 232.471 345.83 250.21 336.371L250.273 336.489ZM191.142 350.685V350.818C170.046 350.818 149.432 345.84 129.32 335.876L129.379 335.756L129.438 335.637C149.516 345.584 170.09 350.552 191.142 350.552V350.685ZM129.379 335.756L129.322 335.876C119.962 331.396 112.469 329.157 106.844 329.157V329.024V328.891C112.53 328.891 120.066 331.15 129.437 335.636L129.379 335.756ZM106.844 329.024V329.157C101.978 329.157 98.4641 330.425 96.255 332.923L96.1551 332.834L96.0552 332.746C98.3339 330.17 101.936 328.891 106.844 328.891V329.024ZM96.1551 332.834L96.2549 332.923C94.0321 335.431 92.9225 338.331 92.9225 341.613H92.7892H92.6559C92.6559 338.264 93.7902 335.302 96.0553 332.746L96.1551 332.834ZM92.7892 341.613H92.9225C92.9225 345.097 93.9849 348.488 96.125 351.785L96.0132 351.858L95.9013 351.93C93.7367 348.596 92.6559 345.154 92.6559 341.613H92.7892ZM96.0132 351.858L96.1258 351.786C98.6368 355.751 103.212 358.738 109.879 360.733C116.544 362.728 125.287 363.727 136.111 363.727V363.86V363.994C125.274 363.994 116.502 362.994 109.802 360.988C103.102 358.983 98.459 355.969 95.9005 351.929L96.0132 351.858ZM136.111 363.86V363.727H147.532V363.86V363.994H136.111V363.86ZM147.532 363.86V363.727C153.975 363.727 160.024 364.015 165.694 364.602L165.681 364.735L165.667 364.867C160.007 364.282 153.967 363.994 147.532 363.994V363.86ZM165.681 364.735L165.698 364.603C189.131 367.733 207.453 375.15 220.65 386.882L220.561 386.982L220.472 387.082C207.327 375.395 189.06 367.992 165.663 364.867L165.681 364.735ZM220.561 386.982L220.65 386.882C233.837 398.603 246.475 414.326 258.579 434.044L258.465 434.114L258.352 434.184C246.257 414.481 233.635 398.78 220.472 387.082L220.561 386.982Z" fill="#1C1C1C" mask="url(#path-10-inside-1_402_984)"/>
<path d="M522.206 561.082C555.231 561.082 585.377 551.918 612.641 533.581L613.937 532.701C641.105 514.081 662.845 489.214 679.151 458.101L679.924 456.614C696.308 424.825 704.503 389.514 704.503 350.689C704.503 312.662 696.562 277.9 680.686 246.4L679.924 244.902C663.79 213.5 642.223 188.39 615.227 169.562L613.937 168.67C586.333 149.755 555.756 140.288 522.206 140.288C489.37 140.288 459.326 149.462 432.065 167.79L430.77 168.67C403.596 187.299 381.861 212.21 365.555 243.412L364.782 244.902C348.398 276.797 340.202 312.058 340.202 350.689C340.202 388.907 348.144 423.721 364.021 455.122L364.782 456.614C380.916 487.926 402.479 512.991 429.479 531.81L430.77 532.701C458.372 551.625 488.849 561.082 522.206 561.082ZM522.206 550.092C502.012 550.092 483.53 541.393 466.756 523.979L465.959 523.144C449.24 505.464 435.874 481.868 425.875 452.369L425.401 450.96C415.347 420.801 410.322 387.382 410.322 350.689C410.322 314.57 415.192 281.615 424.935 251.826L425.401 250.41C435.294 220.724 448.553 196.994 465.165 179.216L465.959 178.373C482.945 160.512 501.691 151.576 522.206 151.576C542.59 151.576 561.172 160.235 577.954 177.543L578.751 178.373C595.47 195.963 608.826 219.504 618.834 249.001L619.309 250.41C629.359 280.569 634.388 313.997 634.388 350.689C634.388 386.808 629.514 419.756 619.775 449.544L619.309 450.96C609.407 480.647 596.157 504.429 579.545 522.297L578.752 523.144C561.761 541.115 542.913 550.092 522.206 550.092Z" fill="#1C1C1C" stroke="#1C1C1C" stroke-width="0.133333"/>
<path d="M885.473 561.082C915.041 561.082 941.59 555.886 965.113 545.489L966.231 544.99C989.655 534.432 1008.31 520.185 1022.19 502.253L1022.84 501.396C1036.79 483.067 1043.76 462.487 1043.76 439.673C1043.76 423.622 1039.19 407.651 1030.03 391.771L1029.13 390.235C1019.68 374.368 1005.21 359.593 985.688 345.915L983.783 344.595C963.942 330.989 938.603 319.301 907.77 309.538L904.769 308.6C876.91 299.763 857.69 288.939 847.129 276.112L846.632 275.5C836.183 262.42 830.956 248.548 830.956 233.891C830.956 217.25 834.117 202.936 840.44 190.96L841.062 189.809C847.592 177.986 856.042 168.725 866.42 162.031L867.431 161.392C878.272 154.649 890.04 151.278 902.737 151.278C914.849 151.278 927.009 154.811 939.206 161.864L940.387 162.559C952.594 169.845 963.602 181.299 973.42 196.914L974.366 198.438C984.394 214.801 992.235 236.113 997.894 262.375L1025.6 203.459C1009.86 182.354 991.285 166.634 969.885 156.286L968.863 155.797C947.014 145.461 924.484 140.289 901.277 140.289C859.221 141.443 825.862 152.759 801.208 174.225L800.041 175.254C775.264 197.394 762.887 222.894 762.887 251.75C762.887 267.048 766.867 282.309 774.831 297.521L775.614 298.992C783.829 314.203 796.487 328.271 813.59 341.192L815.259 342.438C832.642 355.289 854.877 366.034 881.971 374.677L884.608 375.506C915.92 385.303 938.599 397.091 952.616 410.869L953.277 411.526C967.235 425.585 974.229 440.338 974.229 455.774C974.229 474.12 970.286 490.228 962.41 504.089L961.636 505.423C953.499 519.14 942.982 529.878 930.083 537.636L928.827 538.377C915.348 546.191 900.408 550.096 884.002 550.096C862.663 550.096 841.934 540.914 821.836 522.562L820.88 521.681C800.501 502.77 785.525 471.495 775.965 427.866L744.455 486.799C756.741 507.329 775.595 524.694 801.007 538.905L802.223 539.58C828.261 553.918 856.011 561.082 885.473 561.082Z" fill="#1C1C1C" stroke="#1C1C1C" stroke-width="0.133333"/>
<mask id="path-14-inside-2_402_984" fill="white">
<path d="M1103.83 561.148V140.222H1380.16V151.639H1174.09V345.126H1295.86V356.249H1174.09V550.025H1380.16V561.148"/>
</mask>
<path d="M1103.83 561.148V140.222H1380.16V151.639H1174.09V345.126H1295.86V356.249H1174.09V550.025H1380.16V561.148" fill="#1C1C1C"/>
<path d="M1103.83 140.222H1103.7V140.089H1103.83V140.222ZM1380.16 140.222V140.089H1380.29V140.222H1380.16ZM1380.16 151.639H1380.29V151.772H1380.16V151.639ZM1174.09 151.639H1173.96V151.505H1174.09V151.639ZM1174.09 345.126V345.259H1173.96V345.126H1174.09ZM1295.86 345.126V344.992H1295.99V345.126H1295.86ZM1295.86 356.249H1295.99V356.382H1295.86V356.249ZM1174.09 356.249H1173.96V356.116H1174.09V356.249ZM1174.09 550.025V550.158H1173.96V550.025H1174.09ZM1380.16 550.025V549.892H1380.29V550.025H1380.16ZM1103.83 561.148H1103.7V140.222H1103.83H1103.97V561.148H1103.83ZM1103.83 140.222V140.089H1380.16V140.222V140.355H1103.83V140.222ZM1380.16 140.222H1380.29V151.639H1380.16H1380.03V140.222H1380.16ZM1380.16 151.639V151.772H1174.09V151.639V151.505H1380.16V151.639ZM1174.09 151.639H1174.22V345.126H1174.09H1173.96V151.639H1174.09ZM1174.09 345.126V344.992H1295.86V345.126V345.259H1174.09V345.126ZM1295.86 345.126H1295.99V356.249H1295.86H1295.73V345.126H1295.86ZM1295.86 356.249V356.382H1174.09V356.249V356.116H1295.86V356.249ZM1174.09 356.249H1174.22V550.025H1174.09H1173.96V356.249H1174.09ZM1174.09 550.025V549.892H1380.16V550.025V550.158H1174.09V550.025ZM1380.16 550.025H1380.29V561.148H1380.16H1380.03V550.025H1380.16Z" fill="#1C1C1C" mask="url(#path-14-inside-2_402_984)"/>
<path d="M1208.81 70.9912C1227.98 76.9624 1248.39 80.4822 1277.41 77.0059L1278.8 76.835C1316.78 72.0387 1345.96 57.095 1368.37 36.5508C1368.38 36.522 1368.38 36.5112 1368.38 36.5088C1368.37 36.5084 1368.37 36.5072 1368.37 36.5059C1368.37 36.5042 1368.36 36.5019 1368.35 36.5C1368.33 36.4958 1368.3 36.4958 1368.26 36.502C1368.22 36.508 1368.17 36.5195 1368.12 36.5342C1368.02 36.5639 1367.92 36.6064 1367.83 36.6436L1367.66 36.7217L1367.66 36.7227L1367.29 36.8984C1366.39 37.3489 1365.29 38.071 1364.17 38.8262C1363.06 39.5795 1361.93 40.3645 1360.97 40.9385L1360.57 41.1709C1327.95 59.5055 1288.2 62.6181 1248.63 53.1592L1246.74 52.6992C1227.37 47.8706 1206.23 41.0573 1184.59 36.5518C1163.29 32.1173 1141.52 29.9223 1120.49 34.0654L1119.49 34.2676C1113.83 35.4411 1108.65 37.235 1103.6 39.2012C1098.57 41.161 1093.66 43.2953 1088.52 45.1533V45.4932C1107.89 42.8369 1126.59 44.9809 1144.75 49.5137L1146.5 49.96C1158.82 53.1424 1169.53 56.8839 1179.59 60.5879C1189.66 64.2921 1199.07 67.9577 1208.81 70.9912Z" fill="#1C1C1C" stroke="#1C1C1C" stroke-width="0.133333"/>
<path d="M1240.58 44.2754C1256.33 48.6482 1272.5 52.1309 1292.01 51.6973L1293.91 51.6436C1325.4 50.5465 1353.87 40.5983 1375.81 25.8682C1360.23 30.5981 1342.89 33.228 1325.86 30.707L1325.04 30.582C1316.27 29.1976 1308.61 26.1706 1301.28 22.7188C1294.41 19.4812 1287.82 15.8745 1280.87 12.8896L1279.47 12.3008C1259.1 3.87895 1237.26 -0.542253 1213.12 0.133789L1211.96 0.169922C1191.59 0.87287 1164 7.2105 1146.65 14.7041L1145.83 15.0615C1145.75 15.0971 1145.64 15.1329 1145.54 15.1699C1145.44 15.2078 1145.33 15.2482 1145.25 15.293C1145.16 15.3395 1145.12 15.3834 1145.1 15.4229C1145.09 15.4479 1145.09 15.4855 1145.14 15.5449C1169.52 9.09285 1198.7 9.10034 1223.83 13.9365L1225.02 14.1709C1239.47 17.0529 1252.13 22.1912 1264.24 27.9756C1276.34 33.7621 1287.88 40.1886 1300.12 45.6592L1300.09 45.7861C1286.61 44.1042 1275.38 39.4799 1264.43 34.3828C1253.82 29.444 1243.49 24.0632 1231.64 20.4756L1230.49 20.1338C1192.05 8.97712 1143.6 14.1234 1112.33 32.6562C1136.05 27.119 1163.18 27.055 1187.62 30.8389L1190 31.2197C1208.54 34.2979 1224.34 39.7619 1240.58 44.2754Z" fill="#1C1C1C" stroke="#1C1C1C" stroke-width="0.133333"/>
<path d="M1320.7 39.6631C1330.62 39.4647 1340.77 37.1643 1348.82 33.3164C1332.39 35.2561 1317.46 33.7076 1303.92 27.2051L1303.27 26.8896C1273.37 12.1316 1253.13 1.86547 1213.85 2.73145L1211.96 2.78125C1199.71 3.15669 1179.63 5.96322 1168.49 9.38184H1168.48C1168.4 9.40783 1168.29 9.43172 1168.19 9.45703C1168.08 9.483 1167.97 9.51091 1167.89 9.54297C1167.85 9.55898 1167.81 9.57529 1167.79 9.5918C1167.76 9.6088 1167.75 9.62263 1167.75 9.63086C1167.75 9.63539 1167.74 9.64143 1167.75 9.6543C1167.76 9.66776 1167.77 9.68643 1167.8 9.71094C1196.07 6.01518 1226.36 9.97423 1251.54 18.9619L1252.73 19.3945C1258.19 21.3908 1263.5 23.6897 1268.81 26.0059C1274.12 28.3223 1279.42 30.6559 1284.88 32.7236C1295.46 36.7297 1306.61 39.7361 1319.45 39.6787L1320.7 39.6631Z" fill="#1C1C1C" stroke="#1C1C1C" stroke-width="0.133333"/>
<path d="M1249.72 43.5049C1257.79 45.1809 1265.88 45.3594 1273.2 41.3955C1268.63 41.0588 1264.63 39.6347 1260.85 37.875C1258.94 36.9807 1257.08 35.9994 1255.23 35.0312C1253.62 34.1838 1252.02 33.3463 1250.4 32.584L1249.71 32.2617C1227.42 22.1314 1204.5 16.163 1177.1 17.0225L1175.79 17.0684C1169.27 17.3246 1159.52 18.8112 1150.07 20.8721C1140.91 22.8688 1132.04 25.4035 1126.65 27.8779L1126.14 28.1172C1126.07 28.1534 1125.98 28.1839 1125.9 28.2129C1125.81 28.2427 1125.74 28.2706 1125.68 28.3008C1125.66 28.3157 1125.64 28.3295 1125.62 28.3418C1125.61 28.3537 1125.61 28.3617 1125.61 28.3652C1125.61 28.3724 1125.61 28.4002 1125.68 28.4531C1140.6 25.7357 1156.71 25.9683 1172.05 27.1318L1175.11 27.377C1192.31 28.8191 1208.64 31.8642 1224.63 36.1758L1226.18 36.5977C1229.82 37.5987 1233.67 38.9031 1237.63 40.168C1241.58 41.4333 1245.65 42.6593 1249.72 43.5049Z" fill="#1C1C1C" stroke="#1C1C1C" stroke-width="0.133333"/>
</svg>
