<svg width="734" height="933" viewBox="0 0 734 933" fill="none" xmlns="http://www.w3.org/2000/svg">
<g clip-path="url(#clip0_557_6873)">
<path d="M647.577 350.965C694.863 465.131 706.256 581.478 686.473 677.284C666.689 773.092 615.745 848.305 538.402 880.34C461.058 912.375 371.853 895.21 290.119 841.448C208.388 787.688 134.178 697.36 86.8915 583.194C39.6054 469.028 28.2139 352.681 47.9969 256.876C67.7807 161.067 118.724 85.8538 196.068 53.8192C273.411 21.7847 362.617 38.9497 444.35 92.7113C526.081 146.471 600.291 236.8 647.577 350.965Z" stroke="#1C1C1C"/>
<path d="M526.377 160.219C509.313 151.548 500.698 152.354 486.612 161.5C492.84 145.275 493.235 136.514 485.331 121.735C501.164 129.786 509.835 128.44 525.096 120.454C513.744 135.002 512.392 143.586 526.377 160.219Z" fill="#1C1C1C"/>
</g>
<defs>
<clipPath id="clip0_557_6873">
<rect width="734" height="933" fill="white"/>
</clipPath>
</defs>
</svg>
