<svg width="143" height="128" viewBox="0 0 143 128" fill="none" xmlns="http://www.w3.org/2000/svg">
<path d="M142.869 127.564H120.645L100.287 92.811C97.2296 87.2953 94.3294 82.9411 91.5835 79.746C88.8377 76.5535 84.5639 73.5342 78.7634 70.6876C77.105 69.8173 75.8609 68.597 75.0334 67.0296C74.2036 65.4618 73.7906 63.8649 73.7906 62.2389C73.7906 60.3813 74.3343 58.7418 75.4216 57.3177C76.5091 55.8952 78.1663 55.1833 80.3946 55.1833C82.363 55.1833 84.8239 55.9685 87.7764 57.5359C92.0762 59.9167 96.0128 61.1063 99.5873 61.1063C103.473 61.1063 106.529 59.7436 108.757 57.0131C110.983 54.2836 112.564 50.816 113.496 46.6041C114.429 42.3949 114.894 38.1126 114.894 33.7571C114.894 28.5899 114.143 23.886 112.641 19.6463C111.138 15.4091 109.093 12.025 106.502 9.49933C103.912 6.97363 100.934 5.71078 97.5667 5.71078H70.7596V127.564H52.1107V2.31322H102.851C108.653 2.31322 113.91 3.72257 118.625 6.53848C123.337 9.35564 127.081 13.1295 129.853 17.8616C132.623 22.5949 134.01 27.8649 134.01 33.6695C134.01 39.418 132.612 44.6598 129.815 49.3919C127.017 54.1252 123.26 57.8994 118.547 60.7153C113.833 63.5324 108.601 64.939 102.851 64.939C97.257 64.939 91.7902 63.4592 86.4552 60.4968C83.9691 59.1622 81.9748 58.4942 80.4731 58.4942C79.1767 58.4942 78.2316 58.872 77.6357 59.6265C77.0397 60.3813 76.7431 61.2528 76.7431 62.2389C76.7431 63.2848 77.0268 64.3016 77.5977 65.2874C78.9441 67.6694 82.4923 68.8593 88.2428 68.8593H91.2738C92.9832 68.8593 94.5882 68.9457 96.0913 69.1201C102.307 70.0502 107.164 72.2553 110.66 75.739C114.157 79.2242 117.51 83.8993 120.722 89.7637L142.869 127.564Z" fill="#7D7954"/>
<path d="M0.131592 0.111084L0.319823 -5.34058e-05C4.05876 3.82356 8.04766 6.94877 11.4453 11.5769C24.2361 29.0014 26.9007 54.2478 31.2853 74.3098C35.8339 95.1224 45.7317 112.96 60.4571 123.638C61.3734 124.302 63.0423 125.138 63.8031 125.814C63.8324 125.84 64.1829 126.126 64.0066 126.162C50.7849 120.852 38.3946 111.083 28.2625 94.8366C12.3854 69.3779 16.1818 53.3847 10.7907 27.7611C8.74082 18.0177 5.55931 8.60606 0.131592 0.111084Z" fill="#AAB9B2"/>
<path d="M45.264 45.7128C50.9034 56.7773 53.8715 68.0209 54.8286 79.565C55.5204 87.9078 54.5183 96.1383 57.1575 104.833C59.7827 113.482 64.7161 120.983 70.1363 127.099C59.3302 120.609 49.066 109.925 41.8032 95.6844C32.4564 77.3583 33.256 61.6246 27.8001 43.1639C24.0924 30.6187 18.0469 17.637 10.3861 7.784C24.761 17.5932 37.3717 38.6391 41.0938 59.0175C43.4747 72.0524 41.1595 83.9233 45.5796 97.0712C44.7861 83.2221 46.1552 69.7148 42.297 55.0946C38.9046 42.2401 32.5564 28.5995 24.5521 18.8391C24.6169 18.6056 24.8286 18.897 24.9506 19.0057C31.7979 25.0826 40.5197 36.4039 45.264 45.7128Z" fill="#AAB9B2"/>
<path d="M44.1961 46.3422C53.4225 64.6075 53.5795 76.4603 53.9858 93.9853C54.1704 101.947 56.7951 109.324 61.2515 116.542C57.8932 113.782 54.7036 109.628 52.456 105.063C46.487 92.9391 47.5524 80.9604 46.1186 69.0388C44.45 55.163 39.5205 40.0576 31.8088 27.8114C31.8471 27.5744 32.0367 27.8931 32.1448 28.0148C35.9424 32.2946 41.4073 40.8215 44.1961 46.3422Z" fill="#AAB9B2"/>
<path d="M30.5836 33.2208C37.0502 45.7748 39.6087 57.8905 40.2717 70.7488C40.489 74.9666 39.8827 79.3966 41.6329 83.8025C35.1121 79 34.8772 68.6551 33.3814 61.0242C31.6884 52.3858 29.3755 43.9099 26.1688 35.4237C23.2309 27.6484 19.7036 19.6277 15.0967 13.038C15.1305 12.8154 15.2662 13.0386 15.3835 13.1366C19.7637 16.7874 27.5658 27.3623 30.5836 33.2208Z" fill="#AAB9B2"/>
</svg>
